<?xml version="1.0" standalone="no"?>
<!DOCTYPE svg PUBLIC "-//W3C//DTD SVG 20010904//EN"
 "http://www.w3.org/TR/2001/REC-SVG-20010904/DTD/svg10.dtd">
<svg version="1.0" xmlns="http://www.w3.org/2000/svg"
 width="460.000000pt" height="460.000000pt" viewBox="0 0 460.000000 460.000000"
 preserveAspectRatio="xMidYMid meet">
<metadata>
Created by potrace 1.14, written by Peter Selinger 2001-2017
</metadata>
<g transform="translate(0.000000,460.000000) scale(0.100000,-0.100000)"
fill="#000000" stroke="none">
<path d="M2217 4534 c-1 -2 -22 -4 -45 -5 -23 -2 -42 -7 -42 -13 0 -6 -4 -6
-11 1 -8 8 -22 8 -50 -2 -22 -8 -42 -14 -44 -14 -21 1 -115 -26 -115 -33 0 -5
-4 -7 -9 -4 -5 4 -22 1 -38 -6 -15 -6 -30 -12 -33 -13 -48 -19 -70 -31 -70
-38 0 -4 -4 -6 -8 -3 -5 3 -25 -6 -45 -19 -20 -14 -38 -25 -41 -25 -3 0 -17
-12 -32 -26 -19 -20 -28 -24 -34 -15 -4 7 -11 12 -16 11 -5 0 -18 2 -29 6 -52
16 -145 24 -145 12 0 -4 -9 -8 -20 -8 -11 0 -20 -4 -20 -10 0 -5 -6 -10 -14
-10 -18 0 -76 -51 -76 -67 0 -7 -4 -13 -9 -13 -5 0 -12 -10 -16 -22 -4 -13 -9
-30 -12 -38 -12 -34 -15 -120 -4 -120 6 0 11 -7 11 -15 0 -8 5 -15 12 -15 6 0
9 -3 6 -6 -7 -7 44 -63 53 -58 4 2 12 -3 19 -11 7 -8 19 -15 27 -15 9 0 13 -6
10 -15 -4 -8 -2 -17 4 -20 5 -4 7 -10 4 -15 -5 -9 -18 -82 -18 -107 0 -7 -4
-13 -8 -13 -5 0 -5 -11 0 -23 5 -13 6 -29 2 -36 -7 -11 -6 -229 2 -304 4 -37
-12 -65 -32 -53 -5 3 -11 3 -13 -1 -1 -5 -21 -17 -43 -28 -47 -24 -121 -97
-179 -180 -61 -88 -61 -86 -4 -144 49 -49 50 -52 32 -66 -10 -8 -15 -15 -10
-15 5 0 -6 -14 -23 -31 -31 -29 -64 -72 -115 -149 -13 -19 -31 -41 -40 -49 -9
-7 -16 -19 -16 -25 0 -7 -16 -31 -35 -53 -19 -22 -31 -43 -28 -47 3 -3 1 -6
-5 -6 -7 0 -12 -5 -12 -11 0 -6 -9 -23 -20 -39 -10 -15 -40 -69 -66 -121 -62
-125 -76 -144 -111 -147 -16 -1 -37 -13 -50 -28 -20 -25 -85 -148 -90 -169 -1
-5 -11 -41 -21 -79 -11 -38 -19 -87 -17 -107 5 -42 38 -115 56 -121 6 -2 -5
-21 -25 -43 -20 -21 -34 -41 -31 -43 3 -3 0 -12 -7 -19 -7 -9 -8 -17 -2 -21 5
-4 10 -16 12 -27 5 -28 37 -59 53 -50 7 5 25 9 40 10 16 2 50 15 76 31 57 34
63 35 87 15 10 -9 20 -15 22 -13 2 1 18 -5 34 -13 17 -9 30 -12 30 -8 0 4 5 2
11 -4 7 -7 2 -28 -20 -71 -74 -146 -140 -354 -166 -522 -3 -19 -7 -43 -8 -52
-2 -10 -6 -20 -9 -24 -4 -3 -4 -12 -1 -20 4 -11 -12 -30 -64 -74 -7 -5 -17
-10 -23 -10 -6 0 -19 -7 -28 -16 -11 -11 -17 -13 -20 -5 -2 6 -9 8 -15 4 -19
-11 -99 -11 -128 1 -41 17 -119 88 -119 108 0 48 -62 -12 -77 -75 -7 -32 -12
-220 -5 -231 3 -5 6 -25 8 -43 5 -51 69 -175 117 -226 38 -40 128 -91 181
-104 44 -10 163 -11 211 -2 118 23 176 40 169 50 -3 5 2 6 11 3 15 -6 84 19
202 73 29 13 56 23 59 22 4 0 10 3 13 8 3 5 42 27 86 49 44 22 120 64 169 92
98 57 96 56 96 42 0 -13 35 -63 75 -106 72 -79 72 -74 18 -121 -26 -24 -51
-43 -54 -43 -12 0 -41 -52 -46 -80 -3 -22 4 -37 36 -70 36 -38 44 -42 75 -37
31 5 115 59 124 80 2 4 10 7 17 7 7 0 16 7 19 16 4 9 9 14 12 11 4 -3 13 1 22
9 14 15 76 17 97 4 20 -13 99 -34 165 -45 25 -4 56 -10 70 -12 39 -7 434 -11
445 -5 6 4 26 7 45 8 19 1 35 3 35 4 0 1 14 3 30 5 17 1 32 4 35 5 3 1 8 2 13
1 4 0 7 3 7 9 0 5 7 7 15 4 8 -4 21 -2 28 3 6 5 39 18 72 28 33 11 66 24 73
29 13 9 57 17 48 9 -2 -3 26 -36 64 -75 50 -52 75 -71 94 -70 90 0 139 85 91
158 -8 12 -34 43 -59 68 -47 47 -51 70 -15 79 11 3 19 14 19 27 0 11 4 19 9
16 4 -3 13 6 19 19 15 33 40 31 79 -5 18 -17 36 -30 40 -30 4 -1 24 -14 43
-30 19 -17 38 -30 43 -30 4 0 17 -8 27 -18 25 -23 236 -131 269 -137 12 -2 28
-8 35 -13 9 -7 84 -31 119 -38 4 -1 8 -2 10 -4 11 -9 123 -21 192 -20 89 0
172 19 206 47 8 7 19 13 22 13 6 0 32 21 60 50 7 6 20 19 30 28 9 9 17 22 17
29 0 7 4 13 8 13 7 0 22 24 66 109 35 67 54 139 52 199 -1 18 3 32 8 32 6 0 5
5 -1 11 -7 7 -17 8 -29 1 -11 -5 -50 -13 -89 -17 -38 -5 -79 -10 -90 -12 -38
-6 -86 -4 -128 7 -52 14 -203 86 -213 102 -8 12 -10 33 -19 163 -5 90 -6 92
-31 190 -10 39 -23 73 -29 77 -5 4 -7 8 -3 8 8 0 -9 63 -29 110 -28 64 -56
125 -66 144 -6 13 -6 16 2 12 6 -4 11 -3 11 3 0 6 6 8 14 5 9 -3 35 15 65 43
28 27 53 47 56 45 3 -3 5 0 5 7 0 16 31 10 50 -10 8 -9 21 -14 28 -11 7 2 19
-1 26 -8 10 -7 16 -8 21 0 3 5 15 10 25 10 19 0 50 48 46 72 -4 30 -29 78 -41
78 -30 0 -34 26 -9 55 37 43 64 100 68 142 3 48 -18 150 -44 211 -35 80 -43
92 -53 85 -6 -3 -7 -1 -3 5 12 20 -41 91 -64 86 -3 -1 -14 2 -26 6 -15 6 -24
3 -35 -11 -16 -22 -39 -25 -39 -5 0 17 -130 279 -142 287 -5 3 -10 13 -12 21
-1 8 -9 27 -19 41 -9 15 -17 31 -17 36 0 5 -18 38 -40 72 -22 35 -47 78 -55
95 -9 17 -29 44 -45 59 -37 35 -37 51 -5 77 14 11 25 30 25 44 0 37 -74 181
-135 263 -25 34 -67 70 -98 85 -50 23 -60 39 -55 91 2 25 0 45 -4 45 -4 0 -3
14 2 30 5 17 6 30 2 30 -4 0 -7 19 -7 43 -1 46 -11 154 -20 202 -6 33 -12 70
-21 130 -3 22 -8 43 -11 48 -2 4 0 7 5 7 5 0 19 9 32 20 12 11 27 17 31 14 5
-3 9 2 9 10 0 9 5 16 11 16 16 0 38 31 39 53 0 9 4 17 8 17 4 0 8 27 8 60 0
33 -4 60 -8 60 -4 0 -8 7 -8 15 0 35 -73 118 -120 137 -39 15 -127 21 -135 8
-3 -5 -10 -8 -15 -5 -5 3 -20 0 -32 -7 -13 -7 -26 -12 -30 -13 -3 0 -10 -3
-13 -7 -4 -4 -16 3 -26 15 -10 12 -18 18 -19 14 0 -7 -57 28 -70 43 -3 3 -18
11 -35 17 -16 6 -39 14 -50 19 -11 4 -29 9 -40 11 -11 2 -31 8 -45 13 -14 5
-37 12 -52 15 -16 3 -38 7 -50 9 -55 11 -107 18 -158 22 -80 6 -219 11 -223 8z"/>
</g>
</svg>
